<svg xmlns="http://www.w3.org/2000/svg" viewBox="0 0 50 50" fill="currentColor" stroke="currentColor" stroke-width="2.5" class="raster-icon" aria-label="settings"><path d="M15.333 9.124v1.541l-3.104.021-3.104.022-.023 1.605-.022 1.604h6.25l.022 1.562.023 1.563 1.604.022 1.604.023v-3.17H40.5v-3.25H18.583V7.583h-3.25v1.541m3.167 3.209v1.5h-3v-3h3v1.5M31 21.625v1.541l-10.937.021-10.938.021-.023 1.605-.022 1.604H31v3.17l1.604-.023 1.604-.022.023-1.563.023-1.562H40.5v-3.25h-6.25v-3.084H31v1.542m3.083 3.208v1.5h-3v-3h3v1.5m-12.5 9.291v1.542l-6.229.021-6.229.021-.023 1.605-.022 1.604h12.5l.022 1.562.023 1.563 1.604.022 1.604.023v-3.17H40.5v-3.25H24.833v-3.084h-3.25v1.541m3.167 3.209v1.5h-3v-3h3v1.5" fill="#ffffff" fill-rule="evenodd" stroke="none" /></svg>
